<svg xmlns="http://www.w3.org/2000/svg" viewBox="0 0 100 100">
  <defs>
    <style>
      @keyframes bounce {
        0%, 100% { transform: translateY(0); }
        50% { transform: translateY(-10px); }
      }
      .baby { animation: bounce 1s ease-in-out infinite; }
    </style>
  </defs>

  <!-- Background circle with gradient -->
  <circle cx="50" cy="50" r="48" fill="url(#grad)" />
  <defs>
    <linearGradient id="grad" x1="0%" y1="0%" x2="100%" y2="100%">
      <stop offset="0%" style="stop-color:#FDF2F8;stop-opacity:1" />
      <stop offset="100%" style="stop-color:#FAE8FF;stop-opacity:1" />
    </linearGradient>
  </defs>

  <!-- Baby emoji styled -->
  <g class="baby" transform="translate(50, 55)">
    <!-- Head -->
    <circle cx="0" cy="-5" r="18" fill="#FFDAB9" />

    <!-- Eyes -->
    <circle cx="-6" cy="-8" r="2" fill="#000" />
    <circle cx="6" cy="-8" r="2" fill="#000" />

    <!-- Mouth -->
    <path d="M -4,-2 Q 0,0 4,-2" stroke="#000" stroke-width="1.5" fill="none" stroke-linecap="round" />

    <!-- Hair tuft -->
    <path d="M -3,-20 Q 0,-24 3,-20" stroke="#8B4513" stroke-width="2" fill="none" stroke-linecap="round" />

    <!-- Body -->
    <ellipse cx="0" cy="12" rx="14" ry="12" fill="#FFE4E1" />

    <!-- Arms -->
    <ellipse cx="-12" cy="8" rx="4" ry="8" fill="#FFDAB9" transform="rotate(-20 -12 8)" />
    <ellipse cx="12" cy="8" rx="4" ry="8" fill="#FFDAB9" transform="rotate(20 12 8)" />
  </g>

  <!-- Heart accent (Tinder-style) -->
  <path d="M 75,25 Q 75,20 80,20 Q 85,20 85,25 Q 85,30 80,35 L 75,30 Q 75,25 75,25 Z" fill="#FF6B6B" opacity="0.8" />
</svg>
